<?xml version="1.0" encoding="UTF-8" standalone="no"?>
<!-- Created with Inkscape (http://www.inkscape.org/) -->

<svg
   width="209.4554mm"
   height="93.768372mm"
   viewBox="0 0 209.4554 93.768372"
   version="1.1"
   id="svg1"
   xmlns="http://www.w3.org/2000/svg"
   xmlns:svg="http://www.w3.org/2000/svg">
  <defs
     id="defs1" />
  <g
     id="layer1"
     style="display:inline"
     transform="translate(32.806956,-17.74982)">
    <path
       style="font-size:16px;font-family:Hind;-inkscape-font-specification:'Hind, Normal';white-space:pre;display:inline;fill:none;fill-opacity:1;stroke:#ffffff;stroke-width:3;stroke-dasharray:none;stroke-opacity:1"
       d="M 75.054781,61.463041 102.07226,44.527324 99.821341,88.584018 135.25214,51.338329 167.94315,51.57018 142.43953,32.326535 102.568,44.520133 l -87.570489,0.175426 -2.38859,0.876208 15.14906,57.465333"
       id="path113" />
    <path
       style="font-size:16px;font-family:Hind;-inkscape-font-specification:'Hind, Normal';white-space:pre;display:inline;fill:none;fill-opacity:1;stroke:#ffffff;stroke-width:3.29999;stroke-dasharray:none;stroke-opacity:1"
       d="m 14.834621,45.968105 28.22406,16.102613"
       id="path125" />
    <path
       style="font-size:16px;font-family:Hind;-inkscape-font-specification:'Hind, Normal';white-space:pre;display:inline;fill:none;fill-opacity:1;stroke:#ffffff;stroke-width:3.29999;stroke-dasharray:none;stroke-opacity:1"
       d="m 76.746741,80.553056 24.253779,9.095732"
       id="path125-2" />
    <circle
       style="font-size:16px;font-family:Hind;-inkscape-font-specification:'Hind, Normal';white-space:pre;display:inline;fill:#366883;fill-opacity:1;stroke:#ffffff;stroke-width:3;stroke-dasharray:none;stroke-opacity:1"
       id="circle112"
       cx="135.05794"
       cy="52.287037"
       r="7.4118505" />
    <circle
       style="font-size:16px;font-family:Hind;-inkscape-font-specification:'Hind, Normal';white-space:pre;display:inline;fill:#366883;fill-opacity:1;stroke:#ffffff;stroke-width:3;stroke-dasharray:none;stroke-opacity:1"
       id="circle113"
       cx="60.509556"
       cy="72.268303"
       r="7.4118505" />
    <circle
       style="font-size:16px;font-family:Hind;-inkscape-font-specification:'Hind, Normal';white-space:pre;display:inline;fill:#366883;fill-opacity:1;stroke:#ffffff;stroke-width:3;stroke-dasharray:none;stroke-opacity:1"
       id="circle115"
       cx="167.73659"
       cy="51.467163"
       r="7.4118505" />
    <circle
       style="font-size:16px;font-family:Hind;-inkscape-font-specification:'Hind, Normal';white-space:pre;display:inline;fill:#366883;fill-opacity:1;stroke:#ffffff;stroke-width:3;stroke-dasharray:none;stroke-opacity:1"
       id="circle116"
       cx="142.8576"
       cy="32.305332"
       r="7.4118505" />
    <path
       style="font-size:16px;font-family:Hind;-inkscape-font-specification:'Hind, Normal';white-space:pre;display:inline;fill:none;fill-opacity:1;stroke:#ffffff;stroke-width:3.29999;stroke-dasharray:none;stroke-opacity:1"
       d="M 102.68002,44.054987 61.794851,27.061202 13.878841,44.141665"
       id="path126" />
    <circle
       style="font-size:16px;font-family:Hind;-inkscape-font-specification:'Hind, Normal';white-space:pre;display:inline;fill:#366883;fill-opacity:1;stroke:#ffffff;stroke-width:3;stroke-dasharray:none;stroke-opacity:1"
       id="circle112-1"
       cx="99.248878"
       cy="88.702667"
       r="7.4118505" />
    <circle
       style="font-size:16px;font-family:Hind;-inkscape-font-specification:'Hind, Normal';white-space:pre;display:inline;fill:#366883;fill-opacity:1;stroke:#ffffff;stroke-width:3;stroke-dasharray:none;stroke-opacity:1"
       id="circle112-1-4"
       cx="61.861881"
       cy="26.661671"
       r="7.4118505" />
    <path
       style="font-size:16px;font-family:Hind;-inkscape-font-specification:'Hind, Normal';white-space:pre;display:inline;fill:none;fill-opacity:1;stroke:#ffffff;stroke-width:3;stroke-dasharray:none;stroke-opacity:1"
       d="m 17.591251,44.348606 -41.70815,31.879966 52.5424,26.943018 18.76569,-17.414804"
       id="path127" />
    <circle
       style="font-size:16px;font-family:Hind;-inkscape-font-specification:'Hind, Normal';white-space:pre;display:inline;fill:#366883;fill-opacity:1;stroke:#ffffff;stroke-width:3;stroke-dasharray:none;stroke-opacity:1"
       id="circle118"
       cx="27.775061"
       cy="102.60634"
       r="7.4118505" />
    <circle
       style="font-size:16px;font-family:Hind;-inkscape-font-specification:'Hind, Normal';white-space:pre;display:inline;fill:#366883;fill-opacity:1;stroke:#ffffff;stroke-width:3;stroke-dasharray:none;stroke-opacity:1"
       id="circle118-9"
       cx="-23.895105"
       cy="76.309166"
       r="7.4118505" />
    <circle
       style="font-size:16px;font-family:Hind;-inkscape-font-specification:'Hind, Normal';white-space:pre;display:inline;fill:#366883;fill-opacity:1;stroke:#ffffff;stroke-width:3;stroke-dasharray:none;stroke-opacity:1"
       id="circle117"
       cx="102.88235"
       cy="45.047276"
       r="7.4118505" />
    <circle
       style="font-size:16px;font-family:Hind;-inkscape-font-specification:'Hind, Normal';white-space:pre;display:inline;fill:#366883;fill-opacity:1;stroke:#ffffff;stroke-width:3;stroke-dasharray:none;stroke-opacity:1"
       id="circle114"
       cx="14.731405"
       cy="45.160671"
       r="7.4118505" />
    <path
       style="font-size:16px;font-family:Hind;-inkscape-font-specification:'Hind, Normal';white-space:pre;display:inline;fill:#ffffff;fill-opacity:1;stroke:none;stroke-width:3.29999;stroke-dasharray:none;stroke-opacity:1"
       d="m 71.591131,61.278163 c 0.099,0.07426 0.22278,0.321787 0.29704,0.222774 0.0743,-0.09901 -0.39605,-0.297031 -0.29704,-0.222774 0.19803,0.148516 0.40779,0.282552 0.59407,0.445551 0.0351,0.03069 0.10341,0.251926 0.14852,0.297032 0.0391,0.03914 0.10246,0.04356 0.14852,0.07426 0.0269,0.01794 0.35501,0.412986 0.37129,0.445551 0.11207,0.224149 -0.18634,0.444174 -0.0743,0.668324 0.0157,0.03131 0.0586,0.04295 0.0743,0.07426 0.007,0.01326 -0.13783,0.715865 -0.14852,0.742585 -0.17499,0.437465 -0.82935,0.488934 -1.18813,0.668324 -0.15752,0.07876 0.009,0.06976 -0.14852,0.148516 -0.0222,0.01106 -0.0568,-0.01749 -0.0743,0 -0.0175,0.01752 0.0175,0.05676 0,0.07426 -0.0175,0.01752 -0.0568,-0.01752 -0.0743,0 -0.0175,0.01752 0.0206,0.06053 0,0.07426 -0.0651,0.04342 -0.15276,0.03925 -0.22277,0.07426 -0.22262,0.111311 -0.54037,0.310743 -0.74259,0.445551 -0.1937,0.129135 -0.56418,0.385776 -0.66832,0.594066 -0.0111,0.02215 0.0175,0.05676 0,0.07426 -0.0175,0.01752 -0.0568,-0.01749 -0.0743,0 -0.0175,0.01752 0.0175,0.05676 0,0.07426 -0.1802,0.180205 -0.45396,0.233484 -0.66833,0.371293 -0.25415,0.163388 -0.52893,0.306159 -0.74258,0.519808 -0.0175,0.01751 0,0.04951 0,0.07426 -0.0247,0.02476 -0.0451,0.05484 -0.0743,0.07426 -0.15584,0.103892 -0.28849,0.09616 -0.44555,0.148516 -0.13996,0.04665 -0.24323,0.233003 -0.37129,0.297035 -0.0221,0.01106 -0.0567,-0.01752 -0.0743,0 -0.0175,0.01749 0.0175,0.05675 0,0.07426 -0.0175,0.01749 -0.0567,-0.01752 -0.0743,0 -0.0175,0.01749 0.0111,0.05212 0,0.07426 -0.0504,0.10084 -0.23262,0.216519 -0.29703,0.297032 -0.10713,0.133908 -0.22959,0.310673 -0.29703,0.44555 -0.0674,0.134752 -0.33317,0.258908 -0.3713,0.297034 -0.0175,0.01749 0.0175,0.05676 0,0.07426 -0.0553,0.05535 -0.15764,0.03084 -0.22277,0.07426 -0.19528,0.130189 -0.28712,0.287116 -0.44555,0.445551 -0.20636,0.206359 -0.51383,0.336809 -0.74259,0.519808 -0.14757,0.11806 -0.27513,0.360344 -0.44555,0.44555 -0.0221,0.01106 -0.0568,-0.01749 -0.0743,0 -0.0175,0.01752 0,0.04951 0,0.07426 -0.0495,0.04951 -0.0925,0.106511 -0.14852,0.148519 -0.15046,0.112847 -0.28989,0.267515 -0.44555,0.371292 -0.22591,0.150609 -0.45882,0.262234 -0.66832,0.445551 -0.10538,0.0922 -0.18651,0.211066 -0.29704,0.297032 -0.11393,0.08861 -0.25736,0.134165 -0.37129,0.222776 -0.44924,0.349409 -0.76143,0.878359 -1.18813,1.262391 -0.0412,0.03709 -0.72591,0.6077 -0.81685,0.668327 -0.16604,0.110696 -0.36016,0.177294 -0.5198,0.297031 -0.50478,0.378582 -0.85394,0.9441 -1.2624,1.41091 -0.33809,0.386389 -0.73036,0.772977 -1.11387,1.113877 -0.35362,0.314322 -0.75216,0.589666 -1.11388,0.891098 -0.338,0.281668 -0.59549,0.645115 -0.8911,0.965361 -0.1662,0.180055 -0.36294,0.331563 -0.51981,0.519809 -0.5248,0.629761 -0.95938,1.327676 -1.41091,2.004975 -0.0388,0.05825 -0.11249,0.08848 -0.14851,0.148516 -0.0403,0.06712 -0.0362,0.15435 -0.0743,0.222777 -0.16575,0.298344 -0.87773,1.373182 -1.18813,1.559425 -0.39115,0.234685 -0.91032,0.128032 -1.33666,0.222774 -0.10649,0.02365 -0.49429,0.197254 -0.5198,0.222776 -0.0175,0.01752 0.0175,0.05676 0,0.07426 -0.0562,0.05617 -0.72568,0.07426 -0.81685,0.07426 -0.0364,0 -0.44032,0.03974 -0.51981,0 -0.10349,-0.05175 -0.645,-0.746879 -0.66832,-0.816843 -0.0109,-0.03267 -0.023,-0.325189 0,-0.37129 0.18385,-0.367712 0.55389,-0.769847 0.8911,-1.039619 0.0611,-0.0489 0.16742,-0.01892 0.22278,-0.07426 0.0391,-0.03914 0.03,-0.115305 0.0742,-0.148516 0.12524,-0.09393 0.30553,-0.0785 0.44555,-0.148516 0.37201,-0.186007 0.9497,-0.623078 1.26239,-0.891101 0.25224,-0.216206 0.29251,-0.589539 0.51981,-0.816842 0.0175,-0.01749 0.0495,0 0.0743,0 0.0247,-0.02474 0.0548,-0.04513 0.0743,-0.07426 0.1172,-0.175795 0.0387,-0.187198 0.22277,-0.371293 0.13671,-0.136702 0.30885,-0.23459 0.44556,-0.371292 0.12621,-0.126214 0.18552,-0.306168 0.29703,-0.445551 0.28334,-0.354176 0.60114,-0.691668 0.8911,-1.039616 0.0672,-0.08068 0.16452,-0.135395 0.22277,-0.222774 0.0434,-0.06513 0.0308,-0.157647 0.0743,-0.222777 0.12941,-0.194106 0.42948,-0.523134 0.59407,-0.742582 0.22855,-0.304736 0.53549,-0.406495 0.81684,-0.594069 0.18867,-0.125772 0.50011,-0.325392 0.66833,-0.445548 0.057,-0.04069 0.0877,-0.113781 0.14851,-0.148518 0.11574,-0.06613 0.25477,-0.08378 0.3713,-0.148516 0.21638,-0.120211 0.38811,-0.308248 0.59406,-0.44555 0.38365,-0.255768 0.67823,-0.461505 1.03962,-0.742585 1.10457,-0.85911 -0.0657,0.0933 0.74258,-0.445551 0.99254,-0.661688 1.98787,-1.324803 2.97034,-2.004975 0.14676,-0.1016 0.30617,-0.185529 0.44555,-0.297032 0.19833,-0.158663 0.59484,-0.631582 0.81684,-0.742585 0.0221,-0.01106 0.0568,0.01749 0.0743,0 0.0554,-0.05535 0.0308,-0.157647 0.0743,-0.222774 0.0388,-0.05825 0.11721,-0.0859 0.14851,-0.148518 0.0111,-0.02215 0,-0.0495 0,-0.07426 0.0495,-0.02474 0.11782,-0.0282 0.14852,-0.07426 0.0275,-0.04119 -0.0221,-0.104238 0,-0.148516 0.0798,-0.159652 0.19802,-0.297035 0.29703,-0.44555 0.38996,-0.584928 0.88813,-1.09545 1.33666,-1.633686 0.25055,-0.300665 0.41777,-0.664694 0.66832,-0.965359 0.26694,-0.320331 0.61075,-0.582713 0.8911,-0.891101 0.27716,-0.304876 0.59021,-0.625403 0.81684,-0.965358 0.0762,-0.114274 0.25557,-0.181306 0.29704,-0.222774 0.0456,-0.04562 0.0491,-0.173046 0.14851,-0.222777 0.30513,-0.152561 0.82615,-0.62502 1.11388,-0.81684 0.32125,-0.214167 0.70449,-0.392991 1.03962,-0.594069 0.0949,-0.05695 0.21875,-0.07024 0.29703,-0.148516 0.0175,-0.01749 -0.0175,-0.05676 0,-0.07426 0.0175,-0.01749 0.0568,0.01749 0.0743,0 0.0371,-0.03713 0.0371,-0.111387 0.0743,-0.148516 0.15364,-0.153643 -0.006,0.234786 0.14851,-0.07426 0.2167,-0.433398 0.2856,-0.483082 0.8911,-0.742583 z"
       id="path128" />
    <path
       style="font-size:16px;font-family:Hind;-inkscape-font-specification:'Hind, Normal';white-space:pre;display:inline;fill:#ffffff;fill-opacity:1;stroke:none;stroke-width:3.58246;stroke-dasharray:none;stroke-opacity:1"
       d="m 71.371411,76.87693 c 0.11087,0.0521 0.27718,0.260514 0.33261,0.156308 0.0554,-0.104206 -0.43177,-0.226211 -0.33261,-0.156308 0.25859,0.182285 0.52488,0.372851 0.83153,0.468924 0.27199,0.08521 0.53788,0.114779 0.74838,0.312621 0.11086,0.104201 0.20369,0.228727 0.3326,0.312613 0.3166,0.206007 0.65342,0.385223 0.99783,0.547079 0.0248,0.01164 0.0636,-0.01842 0.0832,0 0.0392,0.03684 -0.0392,0.119468 0,0.156308 0.0196,0.01842 0.0635,-0.01844 0.0831,0 0.0196,0.01842 -0.0124,0.05485 0,0.07816 0.0351,0.0659 0.14152,0.08641 0.16631,0.156308 0.0175,0.04943 -0.0175,0.106879 0,0.156308 0.0248,0.06991 0.13124,0.0904 0.1663,0.156308 0.11229,0.211085 0.17579,0.639403 0,0.859697 -0.0595,0.07461 -0.2373,0.345983 -0.33261,0.390771 -0.37313,0.17535 -0.90062,0.358299 -1.33044,0.156308 -0.15821,-0.07435 -0.41277,-0.413527 -0.49892,-0.468923 -0.40016,-0.257334 -0.81362,-0.499587 -1.24729,-0.70339 -0.55863,-0.262525 -1.44119,-0.581774 -2.07881,-0.781542 -0.23024,-0.07214 -0.53725,-0.08563 -0.74838,-0.23446 -0.45806,-0.322895 -0.80303,-0.673476 -1.33044,-0.937853 -0.15468,-0.07753 -0.33615,-0.09511 -0.49891,-0.156308 -0.11087,-0.0521 -0.22175,-0.104206 -0.33262,-0.156305 0,-0.02606 0.0196,-0.05973 0,-0.07816 -0.0521,-0.04895 -0.36679,-0.128691 -0.41576,-0.156308 -0.18563,-0.104682 -0.32987,-0.263663 -0.49892,-0.390771 -0.64414,-0.484338 -1.26326,-1.010314 -1.9125,-1.484929 -0.92847,-0.678728 -1.94458,-1.247286 -2.91035,-1.875697 -0.85649,-0.557311 -0.92546,-0.416185 -1.7854,-1.014918 -0.38738,-0.269714 -0.72775,-0.396431 -1.11024,-0.626023 -0.31019,-0.18619 -0.56691,-0.182009 -0.70921,-0.254029 -0.8887,-0.449763 -1.22148,-1.072605 -2.04952,-1.62197 -0.1948,-0.129236 -0.3989,-0.247303 -0.58207,-0.390771 -0.44118,-0.345543 -0.71677,-0.766688 -1.2473,-1.016003 -0.0496,-0.02331 -0.11371,0.01648 -0.1663,0 -0.0507,-0.0159 -0.19871,-0.140409 -0.24946,-0.156313 -0.52267,-0.163748 -1.05777,-0.30534 -1.5799,-0.468921 -0.2142,-0.06711 -0.32293,-0.202345 -0.49891,-0.312618 -0.0461,-0.0289 -0.12711,0.03684 -0.16631,0 -0.0196,-0.01841 0.0196,-0.05973 0,-0.07815 -0.0643,-0.06041 -0.48973,-0.18487 -0.58207,-0.234466 -0.76125,-0.40885 -1.43608,-0.951939 -2.16197,-1.406776 -0.16473,0.0078 -0.0393,-0.115115 -0.0831,-0.156305 -0.0196,-0.01841 -0.0635,0.01844 -0.0832,0 -0.28112,-0.264218 -0.30409,-0.701117 -0.41576,-1.016006 -0.0637,-0.179445 -0.24163,-0.297902 -0.33261,-0.468923 -0.0399,-0.07501 0.0266,-0.237562 0,-0.312616 -0.0124,-0.03495 -0.0708,-0.0432 -0.0832,-0.07815 -0.0494,-0.139348 0.038,-0.326205 0,-0.468927 -0.0426,-0.159977 -0.26321,-1.22461 -0.1663,-1.406773 0.0934,-0.17553 0.0832,-0.334891 0.0832,-0.547077 0,-0.545166 -0.0424,-0.379391 0.58207,-0.547084 0.0814,-0.02185 0.22524,-0.128609 0.33261,-0.07815 0.0825,0.03877 0.16333,0.129325 0.24946,0.15631 0.11639,0.03646 0.24182,-0.06407 0.33261,0.07815 0.31852,0.498956 0.0212,1.039275 0.49891,1.563081 0.33014,0.362008 0.98162,0.850556 1.4136,1.094161 0.19291,0.108786 0.88978,0.7683 0.99783,0.859695 0.32869,0.27804 0.52112,0.646109 0.83153,0.93785 0.27855,0.261813 0.63612,0.441576 0.91468,0.703389 0.1849,0.173784 0.23086,0.451448 0.41576,0.625229 0.42275,0.397349 0.64431,0.429779 1.08098,0.703392 0.2092,0.131077 0.33665,0.382828 0.49892,0.547079 0.26673,0.269976 0.54798,0.527153 0.83152,0.78154 0.66906,0.600257 0.99377,0.424748 1.70712,0.961122 0.10635,0.07996 0.67487,0.789387 0.78747,0.836428 0.53494,0.223459 0.96676,0.279339 1.50164,0.507849 0.50209,0.214505 1.01145,0.648078 1.49185,0.898924 0.27089,0.141447 0.56143,0.247973 0.83153,0.390771 0.92467,0.488866 1.83904,1.039641 2.74403,1.563085 0.28426,0.164414 0.89488,0.585287 1.16414,0.703384 0.18286,0.08021 0.39313,0.08972 0.58207,0.156308 0.14681,0.05175 0.20369,0.228735 0.33261,0.312618 0.26576,0.172932 0.55178,0.316706 0.83152,0.468924 0.16811,0.09148 1.24615,0.703032 1.49675,0.781545 0.19998,0.06265 0.13263,-0.06266 0.33261,0 1.11637,0.349755 -0.33035,-0.03041 0.58207,0.312615 0.0515,0.01934 0.11672,-0.02331 0.1663,0 0.0248,0.01164 -0.0196,0.05973 0,0.07815 0.0438,0.04119 0.11088,0.0521 0.16631,0.07816 0.0496,0.02331 0.11672,-0.02331 0.16631,0 0.25932,0.121864 0.48148,0.140459 0.83152,0.23446 z"
       id="path129" />
  </g>
</svg>
