<?xml version="1.0" encoding="UTF-8" standalone="no"?>
<!-- Created with Inkscape (http://www.inkscape.org/) -->

<svg
   width="80.503235mm"
   height="63.797142mm"
   viewBox="0 0 80.503235 63.797142"
   version="1.1"
   id="svg1"
   xmlns="http://www.w3.org/2000/svg"
   xmlns:svg="http://www.w3.org/2000/svg">
  <defs
     id="defs1" />
  <g
     id="layer28"
     transform="translate(-62.97084,-106.36251)">
    <ellipse
       style="font-size:16px;font-family:Hind;-inkscape-font-specification:'Hind, Normal';white-space:pre;display:inline;fill:none;fill-opacity:1;stroke:#366883;stroke-width:8.14682;stroke-dasharray:none;stroke-opacity:1"
       id="ellipse37-2"
       cx="94.654503"
       cy="143.38139"
       rx="20.370316"
       ry="19.887983"
       transform="rotate(-3.3420349)" />
    <path
       style="font-size:16px;font-family:Hind;-inkscape-font-specification:'Hind, Normal';white-space:pre;display:inline;fill:#366883;fill-opacity:1;stroke:none;stroke-width:8.96148;stroke-dasharray:none;stroke-opacity:1"
       d="m 131.53719,106.4047 c 0.28323,0.18316 0.66157,0.82629 0.84982,0.54914 0.1885,-0.2771 -1.13309,-0.7322 -0.84982,-0.54914 0.56657,0.36612 1.16304,0.69153 1.69963,1.09832 0.10111,0.0766 0.32313,0.65827 0.45395,0.77186 0.1134,0.0984 0.28794,0.10037 0.41912,0.17522 0.0766,0.0437 1.03864,1.0494 1.0884,1.13401 0.34254,0.58248 -0.44179,1.21969 -0.0993,1.80216 0.048,0.0813 0.16744,0.10579 0.21538,0.18712 0.0215,0.0345 -0.2662,1.93966 -0.29134,2.01295 -0.41168,1.19989 -2.19896,1.4426 -3.15529,1.98062 -0.41985,0.23631 0.0355,0.18554 -0.38427,0.42161 -0.0591,0.0333 -0.15847,-0.0378 -0.20375,0.0119 -0.0453,0.0497 0.0569,0.14935 0.0117,0.19902 -0.0453,0.0497 -0.15848,-0.0378 -0.20376,0.0119 -0.0453,0.0497 0.0659,0.15876 0.0116,0.19902 -0.17188,0.1267 -0.41297,0.12947 -0.59958,0.23472 -0.59338,0.33383 -1.434,0.91899 -1.96773,1.31247 -0.51124,0.37697 -1.48757,1.12379 -1.74073,1.69842 -0.0269,0.0613 0.0569,0.14935 0.0116,0.19902 -0.0453,0.0497 -0.15846,-0.0378 -0.20376,0.0119 -0.0453,0.0497 0.0569,0.14935 0.0117,0.19902 -0.4662,0.51158 -1.209,0.69816 -1.7756,1.10166 -0.67172,0.47839 -1.4033,0.90485 -1.95606,1.51139 -0.0453,0.0497 0.007,0.13259 0.0116,0.19902 -0.0638,0.0704 -0.11514,0.15401 -0.19237,0.21094 -0.4113,0.30326 -0.77646,0.30391 -1.19918,0.46922 -0.37671,0.14726 -0.63089,0.66311 -0.97225,0.85515 -0.0588,0.0333 -0.15825,-0.0378 -0.20374,0.0119 -0.0453,0.0497 0.0569,0.14934 0.0116,0.19902 -0.0453,0.0497 -0.15826,-0.0378 -0.20398,0.0119 -0.0453,0.0497 0.0386,0.13778 0.0116,0.19902 -0.12249,0.27819 -0.60436,0.61726 -0.76847,0.84324 -0.273,0.37587 -0.58134,0.86901 -0.74526,1.24109 -0.16386,0.37178 -0.87363,0.74692 -0.97228,0.85517 -0.0453,0.0497 0.0569,0.14935 0.0116,0.19902 -0.14296,0.15727 -0.42769,0.10776 -0.59957,0.23472 -0.51543,0.38002 -0.74286,0.81508 -1.15277,1.26488 -0.53388,0.58584 -1.35706,0.98454 -1.95609,1.51139 -0.38641,0.33989 -0.69849,1.00933 -1.15276,1.26489 -0.0589,0.0333 -0.15867,-0.0378 -0.20375,0.0119 -0.0453,0.0497 0.007,0.13259 0.0116,0.19902 -0.1281,0.14053 -0.23714,0.30013 -0.38427,0.42164 -0.39516,0.32636 -0.75351,0.76303 -1.16435,1.06595 -0.59627,0.43964 -1.21784,0.77595 -1.76395,1.30058 -0.27469,0.26386 -0.47872,0.59526 -0.76852,0.84324 -0.29873,0.25559 -0.68515,0.40065 -0.98386,0.65626 -1.1779,1.00794 -1.9517,2.47486 -3.06237,3.57192 -0.10735,0.10606 -1.89658,1.74415 -2.13661,1.9211 -0.43824,0.32313 -0.96043,0.53264 -1.37968,0.87898 -1.325735,1.09499 -2.195265,2.66576 -3.242925,3.98165 -0.86717,1.08919 -1.88294,2.18757 -2.88186,3.16221 -0.92103,0.89861 -1.97143,1.70005 -2.91673,2.56544 -0.88327,0.80867 -1.53288,1.8235 -2.29386,2.7287 -0.42783,0.50895 -0.94391,0.94629 -1.34488,1.4757 -1.34136,1.77103 -2.424534,3.71017 -3.557435,5.5968 -0.09742,0.16219 -0.294798,0.25506 -0.384221,0.4216 -0.100005,0.18621 -0.07506,0.41927 -0.169157,0.60869 -0.408086,0.8257 -2.193368,3.81895 -3.015895,4.36757 -1.036449,0.69134 -2.477555,0.48882 -3.632472,0.81091 -0.288473,0.0807 -1.325346,0.60757 -1.391306,0.68004 -0.04525,0.0496 0.05687,0.14925 0.01161,0.19899 -0.145443,0.15963 -1.97943,0.31526 -2.229566,0.32987 -0.09996,0.006 -1.20191,0.17686 -1.42618,0.0834 -0.292016,-0.12182 -1.886502,-1.89731 -1.961417,-2.081 -0.03505,-0.0858 -0.1139,-0.8674 -0.05807,-0.99455 0.446885,-1.01445 1.39925,-2.15095 2.282244,-2.92761 0.159996,-0.1408 0.456406,-0.0774 0.599609,-0.23471 0.101159,-0.11107 0.06417,-0.31363 0.180324,-0.40969 0.328933,-0.27158 0.825996,-0.25919 1.199219,-0.46921 0.991575,-0.55786 2.508196,-1.82119 3.324204,-2.58924 0.658242,-0.61959 0.710341,-1.62608 1.298392,-2.27137 0.04525,-0.0496 0.135837,-0.007 0.203768,-0.0118 0.06382,-0.07 0.143268,-0.12959 0.192361,-0.21094 0.294053,-0.48969 0.07693,-0.50766 0.553119,-1.03028 0.35371,-0.38811 0.810681,-0.67788 1.164393,-1.06597 0.326536,-0.35831 0.461116,-0.84986 0.745251,-1.24109 0.721999,-0.99416 1.541108,-1.94909 2.282266,-2.92762 0.17167,-0.22692 0.43022,-0.38903 0.576364,-0.63241 0.108729,-0.18134 0.05992,-0.42724 0.16891,-0.60866 0.324682,-0.54068 1.096535,-1.47013 1.513815,-2.08435 0.57937,-0.8529 1.40561,-1.17464 2.14819,-1.7222 0.49798,-0.36714 1.32124,-0.95175 1.76397,-1.30057 0.15003,-0.11808 0.22283,-0.31884 0.38424,-0.42164 0.3072,-0.19558 0.6859,-0.26527 0.99548,-0.45732 0.57489,-0.35668 1.01662,-0.88788 1.56022,-1.28868 1.01262,-0.74659 1.78864,-1.34486 2.7362,-2.1557 2.8962,-2.47827 -0.16558,0.26045 1.9677,-1.31249 2.619715,-1.93147 5.246825,-3.86724 7.835995,-5.84662 0.38677,-0.29567 0.81103,-0.54603 1.17599,-0.86704 0.51933,-0.4568 1.53324,-1.78712 2.12498,-2.12006 0.0589,-0.0333 0.15848,0.0378 0.20374,-0.0119 0.1434,-0.15728 0.0599,-0.4272 0.16892,-0.60863 0.0975,-0.16239 0.30816,-0.24888 0.38425,-0.42163 0.0269,-0.061 -0.007,-0.13259 -0.0116,-0.19902 0.13197,-0.0741 0.31883,-0.0944 0.39586,-0.22283 0.0691,-0.11477 -0.0768,-0.27569 -0.0233,-0.39784 0.19399,-0.44044 0.49685,-0.82738 0.74526,-1.24108 0.97842,-1.62931 2.26537,-3.07668 3.41182,-4.59031 0.64039,-0.84554 1.04222,-1.84747 1.68263,-2.69299 0.68228,-0.90084 1.58455,-1.65876 2.30548,-2.52977 0.71275,-0.86108 1.52151,-1.76982 2.09016,-2.71678 0.19107,-0.3183 0.6728,-0.52662 0.7801,-0.64433 0.11787,-0.12945 0.10779,-0.47142 0.37265,-0.62056 0.81329,-0.45754 2.16889,-1.8066 2.92832,-2.36653 0.8479,-0.62517 1.87142,-1.16558 2.75945,-1.75791 0.25145,-0.16789 0.5892,-0.2231 0.79171,-0.44543 0.0453,-0.0497 -0.0569,-0.14935 -0.0116,-0.19902 0.0453,-0.0497 0.15849,0.0378 0.20376,-0.0119 0.0961,-0.10532 0.0845,-0.30431 0.18052,-0.40971 0.39753,-0.43618 0.0194,0.62992 0.39584,-0.22282 0.52676,-1.19567 0.70805,-1.33979 2.32873,-2.13192 z"
       id="path37-3" />
    <path
       style="font-size:16px;font-family:Hind;-inkscape-font-specification:'Hind, Normal';white-space:pre;display:inline;fill:#366883;fill-opacity:1;stroke:none;stroke-width:9.72861;stroke-dasharray:none;stroke-opacity:1"
       d="m 133.37438,148.22437 c 0.31235,0.12186 0.80124,0.65343 0.937,0.36543 0.13577,-0.28803 -1.22,-0.53681 -0.937,-0.36543 0.738,0.44686 1.49842,0.91468 2.35481,1.1229 0.75956,0.18463 1.4937,0.22127 2.10222,0.71749 0.32042,0.26138 0.59461,0.58007 0.96142,0.78414 0.90087,0.50107 1.85305,0.92719 2.82328,1.30555 0.07,0.0272 0.17169,-0.0596 0.22831,-0.0133 0.11314,0.0923 -0.0887,0.32633 0.0245,0.41872 0.0568,0.0462 0.17123,-0.0595 0.22797,-0.0132 0.0568,0.0462 -0.0254,0.14899 0.0122,0.20946 0.10659,0.17089 0.40181,0.20876 0.48075,0.39206 0.0557,0.12957 -0.0313,0.28911 0.0245,0.41871 0.0791,0.18326 0.37424,0.22115 0.48074,0.39206 0.34112,0.54745 0.58233,1.68462 0.13447,2.30289 -0.15165,0.20937 -0.59692,0.96482 -0.85144,1.10004 -0.99631,0.52947 -2.41494,1.10409 -3.62584,0.63187 -0.4457,-0.17366 -1.19719,-1.04158 -1.4422,-1.17618 -1.13816,-0.62521 -2.31046,-1.20788 -3.53219,-1.68432 -1.57376,-0.61376 -4.04516,-1.32751 -5.82584,-1.76048 -0.64297,-0.15624 -1.48739,-0.14321 -2.08998,-0.50813 -1.30726,-0.79156 -2.30857,-1.67539 -3.797,-2.2991 -0.43651,-0.18283 -0.93715,-0.20086 -1.39327,-0.33874 -0.31234,-0.12184 -0.6247,-0.24362 -0.93705,-0.36541 -0.005,-0.0699 0.0445,-0.16307 -0.0123,-0.20947 -0.1506,-0.12297 -1.02647,-0.28597 -1.16516,-0.3521 -0.52567,-0.25067 -0.9463,-0.65341 -1.42998,-0.96682 -1.84307,-1.1942 -3.62403,-2.50393 -5.47954,-3.67128 -2.65362,-1.66935 -5.53042,-3.02953 -8.27846,-4.55811 -2.43714,-1.35566 -2.60427,-0.96656 -5.057295,-2.4326 -1.10505,-0.66044 -2.05872,-0.94532 -3.14407,-1.49908 -0.88018,-0.44904 -1.58389,-0.39669 -1.98555,-0.5668 -2.50867,-1.06242 -3.51915,-2.67751 -5.87694,-4.01641 -0.55467,-0.31499 -1.13313,-0.59856 -1.65814,-0.95353 -1.264492,-0.85491 -2.08652,-1.93887 -3.581104,-2.52172 -0.139634,-0.0545 -0.309394,0.0624 -0.456282,0.0266 -0.14165,-0.0345 -0.567158,-0.34429 -0.708862,-0.37875 -1.459646,-0.35489 -2.949958,-0.64843 -4.408081,-1.00296 -0.598196,-0.14544 -0.917671,-0.4903 -1.417747,-0.75748 -0.131008,-0.07 -0.342998,0.11893 -0.456304,0.0267 -0.05679,-0.0461 0.04457,-0.16307 -0.01222,-0.20922 -0.185938,-0.15149 -1.372583,-0.41674 -1.633673,-0.53481 -2.152591,-0.97323 -4.08904,-2.31988 -6.151799,-3.42194 -0.450705,0.0478 -0.125803,-0.30208 -0.252467,-0.40539 -0.05671,-0.0462 -0.171231,0.0595 -0.22825,0.0133 -0.812639,-0.66273 -0.943998,-1.82935 -1.299633,-2.65495 -0.202844,-0.47049 -0.709545,-0.7593 -0.98594,-1.20284 -0.121183,-0.19451 0.03578,-0.64061 -0.0489,-0.83739 -0.03949,-0.0918 -0.201011,-0.10438 -0.240503,-0.19614 -0.157493,-0.36535 0.05324,-0.87991 -0.07335,-1.25612 -0.141802,-0.42172 -0.913726,-3.2382 -0.676325,-3.74168 0.228804,-0.48516 0.175875,-0.9104 0.142683,-1.4788 -0.08528,-1.46035 -0.175733,-1.00947 1.511442,-1.55872 0.219911,-0.0717 0.597877,-0.3806 0.900348,-0.2625 0.232442,0.0907 0.468346,0.32024 0.708889,0.37874 0.325072,0.0791 0.653459,-0.21045 0.924818,0.15618 0.951969,1.28551 0.220792,2.7805 1.613339,4.1071 0.962422,0.91682 2.826275,2.1211 4.049624,2.70444 0.546273,0.26048 2.561424,1.91549 2.872199,2.14299 0.945306,0.69212 1.530826,1.64724 2.428134,2.379 0.80522,0.6567 1.81437,1.08094 2.619599,1.73762 0.534513,0.43591 0.704025,1.17232 1.238527,1.60819 1.222034,0.99666 1.835003,1.04803 3.075849,1.71099 0.594496,0.3176 0.983559,0.97155 1.454469,1.38553 0.77408,0.68046 1.58593,1.32431 2.40367,1.96029 1.92958,1.50072 2.79302,0.97856 4.83413,2.30104 0.30428,0.19726 1.97508,2.00642 2.29138,2.11439 1.50267,0.51287 2.69616,0.59337 4.199435,1.11979 1.41113,0.49416 2.87647,1.57395 4.23376,2.16894 0.76536,0.33548 1.57918,0.57428 2.34257,0.91353 2.61347,1.16136 5.20836,2.49025 7.77322,3.74736 0.80564,0.3949 2.54681,1.42445 3.30405,1.69766 0.51424,0.18554 1.09263,0.1773 1.62144,0.32542 0.41089,0.11504 0.59464,0.5801 0.96148,0.78416 0.75621,0.42063 1.56345,0.75996 2.35477,1.12289 0.47556,0.21815 3.52899,1.68354 4.22885,1.85371 0.55846,0.13591 0.35405,-0.18922 0.91254,-0.0533 3.11767,0.75804 -0.9111,-0.0287 1.64593,0.74415 0.1443,0.0435 0.31661,-0.081 0.45627,-0.0266 0.07,0.0272 -0.0445,0.16305 0.0122,0.20918 0.12676,0.10337 0.31237,0.12187 0.46854,0.18284 0.13962,0.0544 0.31656,-0.0809 0.45628,-0.0266 0.73057,0.2849 1.34301,0.29909 2.31811,0.49484 z"
       id="path38-5" />
  </g>
</svg>
